<svg width="335" height="89" viewBox="0 0 335 89" fill="none" xmlns="http://www.w3.org/2000/svg">
<g filter="url(#filter0_d_2_60)">
<path d="M96 35.9981L104 30.4981L113 24.9981L122.5 39.4981L100.5 47.4981L96 35.9981Z" fill="white"/>
<path d="M137 46.4981L156 53.4981L165 29.4981L146 27.4981L137 46.4981Z" fill="white"/>
<path d="M230 60.4981L215 67.9981L205.5 65.9981V25.9981L212.5 20.9981L220 22.4981L228.5 20.9981L239 23.9981L252 20.9981L265 25.9981L272.5 37.4981V63.4981L267.5 70.4981L253.5 60.4981L242.5 67.9981L230 60.4981Z" fill="white"/>
<path d="M306.5 40.9981L284 45.9981L280 36.4981L291.5 25.9981L302.5 29.4981L306.5 40.9981Z" fill="white"/>
<path d="M9.50002 8.99807L24.5 2.99807L36.5 5.49807L47 16.9981L48 41.9981L57.5 33.9981L70 25.4981L80.5 35.4981L70 45.9981L52 44.4981L47 49.9981L30.5 65.4981H4.00002L2.00002 47.4981L4.00002 18.9981L9.50002 8.99807Z" fill="white"/>
<path d="M50.14 61.8141C50.14 64.5021 49.188 66.7981 47.284 68.7021C45.436 70.6061 43.168 71.5581 40.48 71.5581H27.208V73.2381C27.208 76.4861 26.06 79.2581 23.764 81.5541C21.468 83.8501 18.696 84.9981 15.448 84.9981H12.004C8.75602 84.9981 5.98402 83.8501 3.68802 81.5541C1.39202 79.2581 0.244019 76.4861 0.244019 73.2381V25.7781C0.244019 18.8901 2.68002 13.0381 7.55202 8.22206C12.424 3.35006 18.304 0.914062 25.192 0.914062C32.08 0.914062 37.932 3.35006 42.748 8.22206C47.62 13.0381 50.056 18.8901 50.056 25.7781L50.14 61.8141ZM46.024 45.0141C46.024 43.5021 45.464 42.2141 44.344 41.1501C43.28 40.0301 41.992 39.4701 40.48 39.4701H22.924V32.1621C22.924 30.5381 23.512 29.1381 24.688 27.9621C25.864 26.7861 27.264 26.1981 28.888 26.1981C30.568 26.1981 31.968 26.7861 33.088 27.9621C34.264 29.0821 34.852 30.4821 34.852 32.1621C34.852 33.7861 35.356 35.1021 36.364 36.1101C37.428 37.1181 38.772 37.6221 40.396 37.6221C41.908 37.6221 43.196 37.0901 44.26 36.0261C45.38 34.9621 45.94 33.6741 45.94 32.1621L45.856 25.7781C45.8 20.0101 43.784 15.1381 39.808 11.1621C35.832 7.13006 30.96 5.11406 25.192 5.11406C19.48 5.11406 14.58 7.13006 10.492 11.1621C6.46002 15.1941 4.44402 20.0661 4.44402 25.7781V56.4381C4.44402 58.5661 5.17202 60.3581 6.62802 61.8141C8.08402 63.2701 9.87602 63.9981 12.004 63.9981H15.448C17.52 63.9981 19.312 63.2701 20.824 61.8141C22.336 60.3021 23.064 58.5101 23.008 56.4381L22.924 50.6421L40.48 50.5581C41.992 50.5581 43.28 50.0261 44.344 48.9621C45.464 47.8421 46.024 46.5261 46.024 45.0141Z" fill="#FF8A00"/>
<path d="M86.8592 35.8581C86.8592 39.3301 85.6552 42.2701 83.2472 44.6781C80.8952 47.0861 77.9832 48.2901 74.5112 48.2901H70.3952C68.7152 48.2901 67.8752 49.1301 67.8752 50.8101C67.8752 52.4901 68.7152 53.3301 70.3952 53.3301H81.2312C82.7432 53.3301 84.0032 53.8621 85.0112 54.9261C86.0752 55.9341 86.6072 57.1941 86.6072 58.7061C86.6072 60.2181 86.0752 61.5061 85.0112 62.5701C84.0032 63.5781 82.7432 64.0821 81.2312 64.0821H69.7232C64.0672 64.0821 59.2792 62.1221 55.3592 58.2021C51.4392 54.2261 49.4792 49.4101 49.4792 43.7541C49.4792 38.0981 51.4392 33.3101 55.3592 29.3901C59.2792 25.4701 64.0672 23.5101 69.7232 23.5101H74.5112C77.9272 23.5101 80.8392 24.7141 83.2472 27.1221C85.6552 29.5301 86.8592 32.4421 86.8592 35.8581ZM76.6952 35.6901C76.6952 34.9061 76.4152 34.2341 75.8552 33.6741C75.2952 33.1141 74.6232 32.8341 73.8392 32.8341C71.8792 32.8341 70.8992 33.7861 70.8992 35.6901C70.8992 37.6501 71.8792 38.6301 73.8392 38.6301C75.7432 38.6301 76.6952 37.6501 76.6952 35.6901ZM71.0672 31.1541C71.0672 29.8101 70.3952 29.1381 69.0512 29.1381C67.7072 29.1381 67.0352 29.8101 67.0352 31.1541C67.0352 32.4981 67.7072 33.1701 69.0512 33.1701C70.3952 33.1701 71.0672 32.4981 71.0672 31.1541ZM69.6392 38.7141C69.6392 37.2581 69.1072 36.0261 68.0432 35.0181C67.0352 33.9541 65.8032 33.4221 64.3472 33.4221C62.8352 33.4221 61.5472 33.9261 60.4832 34.9341C59.4752 35.9421 58.9712 37.2021 58.9712 38.7141C58.9712 40.2261 59.4752 41.5141 60.4832 42.5781C61.5472 43.5861 62.8352 44.0901 64.3472 44.0901C65.8592 44.0901 67.1192 43.5861 68.1272 42.5781C69.1352 41.5141 69.6392 40.2261 69.6392 38.7141Z" fill="#FF8A00"/>
<path d="M127.547 35.8581C127.547 39.3301 126.343 42.2701 123.935 44.6781C121.583 47.0861 118.671 48.2901 115.199 48.2901H111.083C109.403 48.2901 108.563 49.1301 108.563 50.8101C108.563 52.4901 109.403 53.3301 111.083 53.3301H121.919C123.431 53.3301 124.691 53.8621 125.699 54.9261C126.763 55.9341 127.295 57.1941 127.295 58.7061C127.295 60.2181 126.763 61.5061 125.699 62.5701C124.691 63.5781 123.431 64.0821 121.919 64.0821H110.411C104.755 64.0821 99.9667 62.1221 96.0467 58.2021C92.1267 54.2261 90.1667 49.4101 90.1667 43.7541C90.1667 38.0981 92.1267 33.3101 96.0467 29.3901C99.9667 25.4701 104.755 23.5101 110.411 23.5101H115.199C118.615 23.5101 121.527 24.7141 123.935 27.1221C126.343 29.5301 127.547 32.4421 127.547 35.8581ZM117.383 35.6901C117.383 34.9061 117.103 34.2341 116.543 33.6741C115.983 33.1141 115.311 32.8341 114.527 32.8341C112.567 32.8341 111.587 33.7861 111.587 35.6901C111.587 37.6501 112.567 38.6301 114.527 38.6301C116.431 38.6301 117.383 37.6501 117.383 35.6901ZM111.755 31.1541C111.755 29.8101 111.083 29.1381 109.739 29.1381C108.395 29.1381 107.723 29.8101 107.723 31.1541C107.723 32.4981 108.395 33.1701 109.739 33.1701C111.083 33.1701 111.755 32.4981 111.755 31.1541ZM110.327 38.7141C110.327 37.2581 109.795 36.0261 108.731 35.0181C107.723 33.9541 106.491 33.4221 105.035 33.4221C103.523 33.4221 102.235 33.9261 101.171 34.9341C100.163 35.9421 99.6587 37.2021 99.6587 38.7141C99.6587 40.2261 100.163 41.5141 101.171 42.5781C102.235 43.5861 103.523 44.0901 105.035 44.0901C106.547 44.0901 107.807 43.5861 108.815 42.5781C109.823 41.5141 110.327 40.2261 110.327 38.7141Z" fill="#FF8A00"/>
<path d="M172.602 56.4381C172.602 58.5101 171.846 60.3021 170.334 61.8141C168.878 63.2701 167.114 63.9981 165.042 63.9981H164.454C163.054 63.9981 161.738 63.6341 160.506 62.9061C157.706 64.2501 154.738 64.9221 151.602 64.9221C145.778 64.9221 140.85 62.9341 136.818 58.9581C132.842 54.9261 130.854 49.9981 130.854 44.1741C130.854 38.4061 132.87 33.5341 136.902 29.5581C140.934 25.5261 145.834 23.5101 151.602 23.5101C153.394 23.5101 155.158 23.7341 156.894 24.1821V12.6741C156.894 10.6021 157.622 8.83807 159.078 7.38206C160.59 5.87006 162.382 5.11406 164.454 5.11406H165.042C167.114 5.11406 168.878 5.87006 170.334 7.38206C171.846 8.83807 172.602 10.6021 172.602 12.6741V56.4381ZM158.154 36.3621C158.154 34.5141 157.51 32.9461 156.222 31.6581C154.934 30.3701 153.366 29.7261 151.518 29.7261C149.67 29.7261 148.102 30.3701 146.814 31.6581C145.526 32.9461 144.882 34.5141 144.882 36.3621C144.882 38.2101 145.526 39.7781 146.814 41.0661C148.102 42.3541 149.67 42.9981 151.518 42.9981C153.366 42.9981 154.934 42.3541 156.222 41.0661C157.51 39.7781 158.154 38.2101 158.154 36.3621ZM152.61 46.5261C152.61 45.4061 152.05 44.8461 150.93 44.8461C149.754 44.8461 149.166 45.4061 149.166 46.5261C149.166 47.7021 149.754 48.2901 150.93 48.2901C152.05 48.2901 152.61 47.7021 152.61 46.5261ZM147.654 43.8381C147.654 43.0541 147.374 42.3821 146.814 41.8221C146.254 41.2621 145.582 40.9821 144.798 40.9821C142.838 40.9821 141.858 41.9341 141.858 43.8381C141.858 45.7981 142.838 46.7781 144.798 46.7781C146.702 46.7781 147.654 45.7981 147.654 43.8381Z" fill="#FF8A00"/>
<path d="M274.951 75.2541C274.951 77.9421 273.999 80.2381 272.095 82.1421C270.247 84.0461 267.979 84.9981 265.291 84.9981C262.603 84.9981 260.307 84.0461 258.403 82.1421C256.499 80.2941 255.547 78.0261 255.547 75.3381V65.6781C255.547 64.5021 254.959 63.9141 253.783 63.9141C252.607 63.9141 252.019 64.3621 252.019 65.2581V75.2541C252.019 77.9421 251.067 80.2381 249.163 82.1421C247.315 84.0461 245.047 84.9981 242.359 84.9981C239.671 84.9981 237.375 84.0461 235.471 82.1421C233.567 80.2941 232.615 78.0261 232.615 75.3381V65.6781C232.615 64.5021 232.027 63.9141 230.851 63.9141C229.619 63.9141 229.003 64.5021 229.003 65.6781L229.087 73.2381C229.143 76.4861 227.995 79.2581 225.643 81.5541C223.347 83.8501 220.575 84.9981 217.327 84.9981H213.883C210.635 84.9981 207.863 83.8501 205.567 81.5541C203.271 79.2581 202.123 76.4861 202.123 73.2381V31.0701C202.123 27.8221 203.271 25.0501 205.567 22.7541C207.863 20.4581 210.635 19.3101 213.883 19.3101H214.471C216.207 19.3101 217.859 19.6741 219.427 20.4021C221.891 19.6181 224.439 19.2261 227.071 19.2261C231.159 19.2261 234.995 20.1781 238.579 22.0821C242.163 20.2341 245.971 19.3101 250.003 19.3101C256.891 19.3101 262.771 21.7461 267.643 26.6181C272.515 31.4341 274.951 37.2861 274.951 44.1741V75.2541ZM270.751 58.4541V44.1741C270.751 38.4621 268.707 33.5901 264.619 29.5581C260.587 25.5261 255.715 23.5101 250.003 23.5101C245.859 23.5101 242.051 24.6581 238.579 26.9541C235.107 24.6021 231.271 23.4261 227.071 23.4261C224.271 23.4261 221.583 23.9861 219.007 25.1061C217.663 24.0421 216.151 23.5101 214.471 23.5101H213.883C211.811 23.5101 210.019 24.2661 208.507 25.7781C207.051 27.2341 206.323 28.9981 206.323 31.0701V56.4381C206.323 58.5101 207.051 60.3021 208.507 61.8141C210.019 63.2701 211.811 63.9981 213.883 63.9981H217.327C219.399 63.9981 221.163 63.2701 222.619 61.8141C224.131 60.3021 224.887 58.5101 224.887 56.4381V48.8781C224.887 47.1981 225.447 45.7981 226.567 44.6781C227.743 43.5021 229.171 42.9141 230.851 42.9141C232.475 42.9141 233.875 43.5021 235.051 44.6781C236.227 45.8541 236.815 47.2541 236.815 48.8781V58.5381C236.815 60.1061 237.347 61.4221 238.411 62.4861C239.475 63.4941 240.791 63.9981 242.359 63.9981C243.927 63.9981 245.215 63.4661 246.223 62.4021C247.287 61.3381 247.819 60.0221 247.819 58.4541V48.4581C247.819 46.8341 248.407 45.5181 249.583 44.5101C250.759 43.4461 252.159 42.9141 253.783 42.9141C255.407 42.9141 256.807 43.5021 257.983 44.6781C259.159 45.8541 259.747 47.2541 259.747 48.8781V58.5381C259.747 60.1061 260.279 61.4221 261.343 62.4861C262.407 63.4941 263.723 63.9981 265.291 63.9981C266.859 63.9981 268.147 63.4661 269.155 62.4021C270.219 61.3381 270.751 60.0221 270.751 58.4541Z" fill="#FF8A00"/>
<path d="M311.625 35.8581C311.625 39.3301 310.421 42.2701 308.013 44.6781C305.661 47.0861 302.749 48.2901 299.277 48.2901H295.161C293.481 48.2901 292.641 49.1301 292.641 50.8101C292.641 52.4901 293.481 53.3301 295.161 53.3301H305.997C307.509 53.3301 308.769 53.8621 309.777 54.9261C310.841 55.9341 311.373 57.1941 311.373 58.7061C311.373 60.2181 310.841 61.5061 309.777 62.5701C308.769 63.5781 307.509 64.0821 305.997 64.0821H294.489C288.833 64.0821 284.045 62.1221 280.125 58.2021C276.205 54.2261 274.245 49.4101 274.245 43.7541C274.245 38.0981 276.205 33.3101 280.125 29.3901C284.045 25.4701 288.833 23.5101 294.489 23.5101H299.277C302.693 23.5101 305.605 24.7141 308.013 27.1221C310.421 29.5301 311.625 32.4421 311.625 35.8581ZM301.461 35.6901C301.461 34.9061 301.181 34.2341 300.621 33.6741C300.061 33.1141 299.389 32.8341 298.605 32.8341C296.645 32.8341 295.665 33.7861 295.665 35.6901C295.665 37.6501 296.645 38.6301 298.605 38.6301C300.509 38.6301 301.461 37.6501 301.461 35.6901ZM295.833 31.1541C295.833 29.8101 295.161 29.1381 293.817 29.1381C292.473 29.1381 291.801 29.8101 291.801 31.1541C291.801 32.4981 292.473 33.1701 293.817 33.1701C295.161 33.1701 295.833 32.4981 295.833 31.1541ZM294.405 38.7141C294.405 37.2581 293.873 36.0261 292.809 35.0181C291.801 33.9541 290.569 33.4221 289.113 33.4221C287.601 33.4221 286.313 33.9261 285.249 34.9341C284.241 35.9421 283.737 37.2021 283.737 38.7141C283.737 40.2261 284.241 41.5141 285.249 42.5781C286.313 43.5861 287.601 44.0901 289.113 44.0901C290.625 44.0901 291.885 43.5861 292.893 42.5781C293.901 41.5141 294.405 40.2261 294.405 38.7141Z" fill="#FF8A00"/>
<path d="M330.64 38.0421C330.64 40.1141 329.884 41.9061 328.372 43.4181C326.916 44.8741 325.152 45.6021 323.08 45.6021H322.492C320.42 45.6021 318.628 44.8741 317.116 43.4181C315.66 41.9061 314.932 40.1141 314.932 38.0421V12.6741C314.932 10.6021 315.66 8.83807 317.116 7.38206C318.628 5.87006 320.42 5.11406 322.492 5.11406H323.08C325.152 5.11406 326.916 5.87006 328.372 7.38206C329.884 8.83807 330.64 10.6021 330.64 12.6741V38.0421ZM334.168 55.5981L329.716 60.3861L327.784 66.6021L321.904 63.8301L315.352 63.9981L316.192 57.4461L314.092 51.3141L320.476 50.1381L325.684 46.1901L328.792 51.9021L334.168 55.5981Z" fill="#FF8A00"/>
</g>
<defs>
<filter id="filter0_d_2_60" x="0.244019" y="0.914062" width="333.924" height="88.0859" filterUnits="userSpaceOnUse" color-interpolation-filters="sRGB">
<feFlood flood-opacity="0" result="BackgroundImageFix"/>
<feColorMatrix in="SourceAlpha" type="matrix" values="0 0 0 0 0 0 0 0 0 0 0 0 0 0 0 0 0 0 127 0" result="hardAlpha"/>
<feOffset dy="4"/>
<feComposite in2="hardAlpha" operator="out"/>
<feColorMatrix type="matrix" values="0 0 0 0 1 0 0 0 0 0.72 0 0 0 0 0 0 0 0 1 0"/>
<feBlend mode="normal" in2="BackgroundImageFix" result="effect1_dropShadow_2_60"/>
<feBlend mode="normal" in="SourceGraphic" in2="effect1_dropShadow_2_60" result="shape"/>
</filter>
</defs>
</svg>
