<svg viewBox="0 0 25.00 25.00" version="1.1" xmlns="http://www.w3.org/2000/svg" xmlns:xlink="http://www.w3.org/1999/xlink" xmlns:sketch="http://www.bohemiancoding.com/sketch/ns" fill="#000000"><g id="SVGRepo_bgCarrier" stroke-width="0"><path transform="translate(0, 0), scale(0.78125)" d="M16,29.204431468155235C18.520030311061742,29.251897442688527,20.85272587288475,28.19786831171541,23.07592726855463,27.010357746836156C25.463912990552878,25.734828557633175,27.89320547595266,24.382746052883697,29.326648924797823,22.086076638288034C30.8625568052329,19.625238259575884,32.2055029349609,16.56020047626354,31.322983714931844,13.796887542554343C30.447447321005907,11.055438986692858,27.03177425641921,10.224962991899247,24.91565808209252,8.27453829499941C23.0995752202012,6.600654361582373,22.18178808671082,3.695822237079677,19.772786657013445,3.1510686271576756C17.366757814616594,2.6069872159495517,15.279145263546024,4.793892477737048,12.93618036980328,5.565588583180636C10.692487057492297,6.304587872305419,8.276511968887458,6.304735255556222,6.2947003728268225,7.590310001246088C3.8470997070035673,9.178035903027421,1.1978491718993118,10.962432908847461,0.3250224851593124,13.746278474506639C-0.5832071883865892,16.6430404407846,-0.10203091766160877,20.061463985072386,1.5954654587924164,22.578330505392707C3.227488168395488,24.9981196579227,6.441709038799983,25.527240586741172,9.093329649014837,26.74698884226187C11.359218385090786,27.789300032024684,13.50631633407274,29.157461745266815,16,29.204431468155235" fill="#FFB800" strokewidth="0"></path></g><g id="SVGRepo_tracerCarrier" stroke-linecap="round" stroke-linejoin="round"></g><g id="SVGRepo_iconCarrier"> <title>cross</title> <desc>Created with Sketch Beta.</desc> <defs> </defs> <g id="Page-1" stroke="none" stroke-width="1" fill="none" fill-rule="evenodd" sketch:type="MSPage"> <g id="Icon-Set-Filled" sketch:type="MSLayerGroup" transform="translate(-469.000000, -1041.000000)" fill="#FF8A00"> <path d="M487.148,1053.48 L492.813,1047.82 C494.376,1046.26 494.376,1043.72 492.813,1042.16 C491.248,1040.59 488.712,1040.59 487.148,1042.16 L481.484,1047.82 L475.82,1042.16 C474.257,1040.59 471.721,1040.59 470.156,1042.16 C468.593,1043.72 468.593,1046.26 470.156,1047.82 L475.82,1053.48 L470.156,1059.15 C468.593,1060.71 468.593,1063.25 470.156,1064.81 C471.721,1066.38 474.257,1066.38 475.82,1064.81 L481.484,1059.15 L487.148,1064.81 C488.712,1066.38 491.248,1066.38 492.813,1064.81 C494.376,1063.25 494.376,1060.71 492.813,1059.15 L487.148,1053.48" id="cross" sketch:type="MSShapeGroup"> </path> </g> </g> </g></svg>